<svg id="svg" version="1.1" width="640" height="640" xmlns="http://www.w3.org/2000/svg" xmlns:xlink="http://www.w3.org/1999/xlink" style="display: block;"><g id="svgg"><path id="path0" d="M188.438 12.538 C 170.891 13.550,153.988 16.843,138.438 22.280 C 135.000 23.482,130.821 24.919,129.151 25.474 C 111.517 31.335,84.245 49.442,66.844 66.844 C 45.491 88.197,31.362 111.262,21.266 141.250 C 6.296 185.715,10.262 238.922,31.746 281.831 C 35.876 290.079,44.330 304.586,45.612 305.625 C 45.824 305.797,46.674 306.922,47.500 308.125 C 58.980 324.840,80.039 344.661,98.750 356.360 C 154.249 391.063,223.449 394.719,281.250 366.003 C 289.926 361.693,304.535 353.233,305.625 351.888 C 305.797 351.676,306.922 350.826,308.125 350.000 C 324.949 338.446,344.582 317.549,356.569 298.438 C 366.284 282.949,374.202 264.732,378.981 246.875 C 400.005 168.310,366.996 83.908,298.438 40.934 C 265.823 20.490,226.514 10.342,188.438 12.538 M194.615 91.319 C 196.030 91.700,197.750 92.231,198.438 92.498 C 199.125 92.765,202.500 93.743,205.938 94.673 C 209.375 95.602,212.834 96.619,213.623 96.931 C 214.413 97.244,215.732 97.500,216.555 97.500 C 217.378 97.500,218.225 97.781,218.438 98.125 C 218.650 98.469,219.393 98.750,220.088 98.750 C 220.784 98.750,223.369 99.438,225.833 100.280 C 230.674 101.933,243.087 105.545,245.625 106.040 C 246.484 106.207,247.750 106.581,248.438 106.870 C 249.125 107.159,251.938 108.003,254.688 108.746 C 261.452 110.574,262.566 110.889,269.063 112.810 C 272.156 113.725,275.672 114.710,276.875 114.998 C 278.909 115.485,282.520 116.524,302.188 122.282 C 306.313 123.490,310.672 124.711,311.875 124.996 C 315.360 125.821,323.321 128.142,324.688 128.732 C 325.375 129.028,329.453 130.183,333.750 131.297 C 344.338 134.041,343.475 132.330,342.705 149.057 C 341.974 164.934,342.183 164.216,338.598 163.186 C 337.135 162.766,334.109 161.895,331.875 161.250 C 329.641 160.605,326.022 159.575,323.833 158.961 C 318.763 157.539,318.609 156.978,322.064 152.529 C 325.349 148.299,325.176 147.553,320.625 146.314 C 319.078 145.893,315.703 144.903,313.125 144.113 C 310.547 143.324,306.328 142.041,303.750 141.262 C 301.172 140.483,297.938 139.500,296.563 139.076 C 295.188 138.652,292.797 137.951,291.250 137.518 C 289.703 137.084,287.734 136.498,286.875 136.214 C 286.016 135.930,282.078 134.722,278.125 133.530 C 258.882 127.726,260.613 127.721,255.276 133.591 C 252.241 136.928,250.809 138.081,250.075 137.776 C 249.518 137.545,248.219 137.129,247.188 136.851 C 235.661 133.745,235.778 133.854,239.509 129.685 C 243.310 125.438,243.311 125.439,234.063 122.823 C 227.369 120.929,209.882 115.767,194.375 111.108 C 187.970 109.183,188.199 109.831,189.156 96.346 C 189.611 89.935,189.583 89.962,194.615 91.319 M190.313 115.598 C 192.719 116.258,197.078 117.544,200.000 118.455 C 202.922 119.366,209.531 121.325,214.688 122.808 C 232.040 127.799,234.700 128.918,232.031 130.104 C 231.557 130.315,227.734 134.533,213.788 150.233 C 208.131 156.602,205.852 158.134,204.732 156.322 C 204.544 156.018,203.613 155.631,202.664 155.463 C 201.714 155.295,194.328 152.846,186.250 150.021 C 178.172 147.196,169.805 144.290,167.656 143.565 C 165.508 142.839,163.756 141.951,163.764 141.591 C 163.787 140.505,184.352 114.374,185.174 114.386 C 185.594 114.392,187.906 114.937,190.313 115.598 M270.176 136.937 C 273.689 138.003,277.406 139.102,278.438 139.380 C 281.476 140.198,286.998 141.859,289.688 142.764 C 291.063 143.226,293.875 144.087,295.938 144.677 C 298.000 145.267,302.742 146.706,306.476 147.875 C 310.209 149.044,313.625 150.000,314.065 150.000 C 316.647 150.000,311.056 159.136,301.563 170.429 C 301.219 170.838,298.828 173.985,296.250 177.423 C 290.677 184.855,292.241 184.627,278.750 179.975 C 265.873 175.534,250.939 170.377,242.188 167.348 C 233.867 164.468,233.567 165.391,247.813 150.020 C 250.219 147.424,254.267 142.982,256.808 140.150 C 262.112 134.238,261.647 134.350,270.176 136.937 M240.313 140.659 C 247.671 142.627,247.752 142.161,238.279 152.394 L 234.617 156.351 231.527 155.732 C 227.293 154.885,221.059 153.040,220.370 152.430 C 219.791 151.917,222.886 148.010,228.958 141.589 C 231.959 138.415,232.448 138.123,233.804 138.690 C 234.634 139.038,237.563 139.923,240.313 140.659 M167.188 149.039 C 170.969 150.319,174.625 151.608,175.313 151.905 C 176.000 152.201,178.813 153.172,181.563 154.062 C 184.313 154.951,187.051 155.948,187.648 156.277 C 188.245 156.606,189.243 156.875,189.867 156.875 C 190.490 156.875,191.267 157.139,191.594 157.463 C 191.920 157.786,192.891 158.196,193.750 158.373 C 195.843 158.806,199.872 160.289,200.405 160.822 C 200.641 161.057,201.490 161.250,202.292 161.250 C 205.594 161.250,203.165 163.470,191.543 171.075 C 184.830 175.468,173.228 183.061,165.762 187.948 C 139.349 205.236,140.977 203.888,143.281 206.562 L 144.688 208.194 147.500 206.370 C 149.047 205.366,154.953 201.504,160.625 197.787 C 166.297 194.070,175.016 188.359,180.000 185.097 C 184.984 181.834,193.141 176.471,198.125 173.179 C 203.109 169.887,207.468 167.075,207.812 166.930 C 208.155 166.786,210.546 165.214,213.124 163.439 C 220.223 158.550,220.189 158.563,223.964 159.408 C 229.255 160.592,229.915 161.361,227.903 164.000 C 225.829 166.718,225.837 167.191,227.969 168.001 C 234.021 170.301,240.162 172.491,243.125 173.408 C 245.016 173.993,246.984 174.623,247.500 174.808 C 248.016 174.993,253.641 176.938,260.000 179.131 C 266.359 181.324,272.125 183.377,272.813 183.694 C 273.500 184.011,274.625 184.404,275.313 184.567 C 276.000 184.730,280.191 186.150,284.626 187.722 C 289.061 189.295,292.909 190.446,293.178 190.280 C 293.447 190.114,295.004 188.157,296.638 185.931 C 300.075 181.250,300.635 180.970,304.396 182.059 C 308.533 183.257,308.151 183.711,296.250 191.731 C 290.234 195.786,280.531 202.350,274.688 206.319 C 268.844 210.288,257.875 217.712,250.313 222.817 C 242.750 227.921,231.668 235.413,225.685 239.464 C 213.699 247.581,213.579 247.616,214.141 242.831 C 214.856 236.748,214.079 234.047,211.382 233.240 C 210.106 232.858,205.882 231.551,201.995 230.335 C 198.108 229.120,194.438 228.125,193.839 228.125 C 193.240 228.125,192.483 227.886,192.156 227.593 C 191.830 227.300,189.734 226.583,187.500 225.999 C 185.266 225.415,182.875 224.700,182.188 224.410 C 180.765 223.810,171.718 221.077,167.500 219.973 C 165.953 219.568,164.125 218.995,163.438 218.699 C 162.750 218.404,159.234 217.285,155.625 216.213 C 152.016 215.141,145.969 213.325,142.188 212.177 C 138.406 211.029,132.359 209.212,128.750 208.140 C 125.141 207.067,121.625 205.953,120.938 205.664 C 120.250 205.375,116.581 204.261,112.785 203.187 C 108.988 202.114,102.379 200.119,98.097 198.754 C 87.330 195.320,86.070 194.939,85.000 194.786 C 84.484 194.713,83.781 194.488,83.438 194.288 C 83.094 194.087,82.039 193.738,81.094 193.512 C 77.811 192.727,77.476 192.958,105.313 176.872 C 110.813 173.694,116.578 170.388,118.125 169.526 C 119.672 168.663,121.219 167.740,121.563 167.474 C 121.906 167.208,125.844 164.899,130.313 162.343 C 134.781 159.786,142.218 155.505,146.839 152.829 C 155.975 147.538,158.726 146.184,159.688 146.503 C 160.031 146.618,163.406 147.759,167.188 149.039 M322.215 164.089 C 332.456 166.995,332.600 167.125,328.594 169.830 C 327.133 170.817,323.362 173.374,320.215 175.512 L 314.492 179.400 311.777 178.518 C 310.284 178.034,308.277 177.457,307.317 177.237 C 304.386 176.566,304.721 175.365,309.674 168.808 C 315.049 161.692,314.499 161.899,322.215 164.089 M339.239 184.118 L 339.416 190.409 332.052 195.396 C 322.517 201.854,309.761 210.556,303.438 214.918 C 300.688 216.815,293.797 221.494,288.125 225.317 C 282.453 229.139,274.297 234.670,270.000 237.608 C 258.868 245.218,252.580 249.498,229.113 265.441 C 222.320 270.056,222.434 270.187,222.641 258.020 L 222.813 247.887 231.563 241.981 C 236.375 238.732,247.063 231.517,255.313 225.948 C 271.746 214.854,272.100 214.638,295.625 201.398 C 312.372 191.973,324.040 185.331,330.000 181.830 C 339.274 176.383,339.020 176.320,339.239 184.118 M42.633 187.421 C 44.450 188.066,48.469 189.343,51.563 190.259 C 57.980 192.160,70.796 196.085,73.125 196.862 C 74.580 197.348,81.112 199.319,88.438 201.483 C 90.156 201.991,93.953 203.151,96.875 204.062 C 99.797 204.973,106.266 206.939,111.250 208.430 C 120.368 211.159,123.313 212.055,135.938 215.944 C 139.719 217.108,146.188 219.084,150.313 220.334 C 154.438 221.584,158.516 222.846,159.375 223.138 C 160.234 223.430,163.891 224.550,167.500 225.626 C 171.109 226.702,174.906 227.874,175.938 228.229 C 176.969 228.585,178.656 229.102,179.688 229.380 C 180.719 229.657,183.953 230.639,186.875 231.563 C 189.797 232.486,193.031 233.471,194.063 233.753 C 200.066 235.389,207.296 237.746,207.978 238.289 C 208.845 238.979,208.681 251.964,207.498 276.250 C 207.155 283.297,206.783 292.224,206.672 296.088 C 206.421 304.814,206.154 304.991,198.438 301.544 C 197.406 301.084,194.313 299.941,191.563 299.005 C 188.813 298.069,186.295 297.066,185.969 296.776 C 185.642 296.487,184.865 296.250,184.242 296.250 C 183.618 296.250,182.620 295.971,182.023 295.629 C 181.096 295.099,164.682 289.017,160.000 287.469 C 159.141 287.184,155.695 285.950,152.344 284.726 C 148.992 283.502,143.630 281.564,140.427 280.420 C 137.224 279.276,134.342 278.188,134.021 278.002 C 133.700 277.816,132.313 277.313,130.938 276.883 C 129.563 276.454,127.594 275.735,126.563 275.285 C 125.531 274.835,121.734 273.446,118.125 272.198 C 114.516 270.950,111.000 269.686,110.313 269.389 C 109.625 269.093,106.953 268.102,104.375 267.188 C 101.797 266.273,99.125 265.280,98.438 264.981 C 97.750 264.682,95.922 264.029,94.375 263.528 C 91.837 262.707,90.743 262.295,86.563 260.582 C 85.875 260.301,83.203 259.346,80.625 258.460 C 78.047 257.574,75.375 256.603,74.688 256.301 C 74.000 255.998,72.594 255.465,71.563 255.115 C 67.008 253.571,60.207 251.101,59.063 250.576 C 58.375 250.261,54.578 248.864,50.625 247.472 C 31.024 240.572,32.233 241.177,32.762 238.536 C 32.980 237.451,33.566 230.797,34.065 223.750 C 37.116 180.628,36.063 185.093,42.633 187.421 M340.954 205.156 C 340.703 210.055,340.386 214.247,340.249 214.472 C 340.039 214.816,332.006 211.965,327.813 210.057 C 327.125 209.744,326.070 209.331,325.469 209.139 C 324.184 208.728,324.062 207.833,325.156 206.840 C 326.609 205.520,340.308 196.308,340.861 196.279 C 341.172 196.263,341.213 200.109,340.954 205.156 " stroke="none" fill="#ffffff" fill-rule="evenodd"></path><path id="path1" d="M189.156 96.346 C 188.199 109.831,187.970 109.183,194.375 111.108 C 209.882 115.767,227.369 120.929,234.063 122.823 C 243.311 125.439,243.310 125.438,239.509 129.685 C 235.778 133.854,235.661 133.745,247.188 136.851 C 248.219 137.129,249.518 137.545,250.075 137.776 C 250.809 138.081,252.241 136.928,255.276 133.591 C 260.613 127.721,258.882 127.726,278.125 133.530 C 282.078 134.722,286.016 135.930,286.875 136.214 C 287.734 136.498,289.703 137.084,291.250 137.518 C 292.797 137.951,295.188 138.652,296.563 139.076 C 297.938 139.500,301.172 140.483,303.750 141.262 C 306.328 142.041,310.547 143.324,313.125 144.113 C 315.703 144.903,319.078 145.893,320.625 146.314 C 325.176 147.553,325.349 148.299,322.064 152.529 C 318.609 156.978,318.763 157.539,323.833 158.961 C 326.022 159.575,329.641 160.605,331.875 161.250 C 334.109 161.895,337.135 162.766,338.598 163.186 C 342.183 164.216,341.974 164.934,342.705 149.057 C 343.475 132.330,344.338 134.041,333.750 131.297 C 329.453 130.183,325.375 129.028,324.688 128.732 C 323.321 128.142,315.360 125.821,311.875 124.996 C 310.672 124.711,306.313 123.490,302.188 122.282 C 282.520 116.524,278.909 115.485,276.875 114.998 C 275.672 114.710,272.156 113.725,269.063 112.810 C 262.566 110.889,261.452 110.574,254.688 108.746 C 251.938 108.003,249.125 107.159,248.438 106.870 C 247.750 106.581,246.484 106.207,245.625 106.040 C 243.087 105.545,230.674 101.933,225.833 100.280 C 223.369 99.438,220.784 98.750,220.088 98.750 C 219.393 98.750,218.650 98.469,218.438 98.125 C 218.225 97.781,217.378 97.500,216.555 97.500 C 215.732 97.500,214.413 97.244,213.623 96.931 C 212.834 96.619,209.375 95.602,205.938 94.673 C 202.500 93.743,199.125 92.765,198.438 92.498 C 190.428 89.389,189.626 89.721,189.156 96.346 M174.094 127.656 C 162.170 143.007,162.631 141.867,167.656 143.565 C 169.805 144.290,178.172 147.196,186.250 150.021 C 194.328 152.846,201.714 155.295,202.664 155.463 C 203.613 155.631,204.544 156.018,204.732 156.322 C 205.852 158.134,208.131 156.602,213.788 150.233 C 227.734 134.533,231.557 130.315,232.031 130.104 C 234.700 128.918,232.040 127.799,214.688 122.808 C 209.531 121.325,202.922 119.366,200.000 118.455 C 193.182 116.329,186.151 114.399,185.174 114.386 C 184.754 114.380,179.768 120.352,174.094 127.656 M256.808 140.150 C 254.267 142.982,250.219 147.424,247.813 150.020 C 233.567 165.391,233.867 164.468,242.188 167.348 C 250.939 170.377,265.873 175.534,278.750 179.975 C 292.241 184.627,290.677 184.855,296.250 177.423 C 298.828 173.985,301.219 170.838,301.563 170.429 C 311.056 159.136,316.647 150.000,314.065 150.000 C 313.625 150.000,310.209 149.044,306.476 147.875 C 302.742 146.706,298.000 145.267,295.938 144.677 C 293.875 144.087,291.063 143.226,289.688 142.764 C 286.998 141.859,281.476 140.198,278.438 139.380 C 277.406 139.102,273.689 138.003,270.176 136.937 C 261.647 134.350,262.112 134.238,256.808 140.150 M228.958 141.589 C 222.886 148.010,219.791 151.917,220.370 152.430 C 221.059 153.040,227.293 154.885,231.527 155.732 L 234.617 156.351 238.279 152.394 C 247.752 142.161,247.671 142.627,240.313 140.659 C 237.563 139.923,234.634 139.038,233.804 138.690 C 232.448 138.123,231.959 138.415,228.958 141.589 M157.152 147.130 C 156.101 147.588,151.460 150.153,146.839 152.829 C 142.218 155.505,134.781 159.786,130.313 162.343 C 125.844 164.899,121.906 167.208,121.563 167.474 C 121.219 167.740,119.672 168.663,118.125 169.526 C 116.578 170.388,110.813 173.694,105.313 176.872 C 77.476 192.958,77.811 192.727,81.094 193.512 C 82.039 193.738,83.094 194.087,83.438 194.288 C 83.781 194.488,84.484 194.713,85.000 194.786 C 86.070 194.939,87.330 195.320,98.097 198.754 C 102.379 200.119,108.988 202.114,112.785 203.187 C 116.581 204.261,120.250 205.375,120.938 205.664 C 121.625 205.953,125.141 207.067,128.750 208.140 C 132.359 209.212,138.406 211.029,142.188 212.177 C 145.969 213.325,152.016 215.141,155.625 216.213 C 159.234 217.285,162.750 218.404,163.438 218.699 C 164.125 218.995,165.953 219.568,167.500 219.973 C 171.718 221.077,180.765 223.810,182.188 224.410 C 182.875 224.700,185.266 225.415,187.500 225.999 C 189.734 226.583,191.830 227.300,192.156 227.593 C 192.483 227.886,193.240 228.125,193.839 228.125 C 194.438 228.125,198.108 229.120,201.995 230.335 C 205.882 231.551,210.106 232.858,211.382 233.240 C 214.079 234.047,214.856 236.748,214.141 242.831 C 213.579 247.616,213.699 247.581,225.685 239.464 C 231.668 235.413,242.750 227.921,250.313 222.817 C 257.875 217.712,268.844 210.288,274.688 206.319 C 280.531 202.350,290.234 195.786,296.250 191.731 C 308.151 183.711,308.533 183.257,304.396 182.059 C 300.635 180.970,300.075 181.250,296.638 185.931 C 295.004 188.157,293.447 190.114,293.178 190.280 C 292.909 190.446,289.061 189.295,284.626 187.722 C 280.191 186.150,276.000 184.730,275.313 184.567 C 274.625 184.404,273.500 184.011,272.813 183.694 C 272.125 183.377,266.359 181.324,260.000 179.131 C 253.641 176.938,248.016 174.993,247.500 174.808 C 246.984 174.623,245.016 173.993,243.125 173.408 C 240.162 172.491,234.021 170.301,227.969 168.001 C 225.837 167.191,225.829 166.718,227.903 164.000 C 229.915 161.361,229.255 160.592,223.964 159.408 C 220.189 158.563,220.223 158.550,213.124 163.439 C 210.546 165.214,208.155 166.786,207.812 166.930 C 207.468 167.075,203.109 169.887,198.125 173.179 C 193.141 176.471,184.984 181.834,180.000 185.097 C 175.016 188.359,166.297 194.070,160.625 197.787 C 154.953 201.504,149.047 205.366,147.500 206.370 L 144.688 208.194 143.281 206.562 C 140.977 203.888,139.349 205.236,165.762 187.948 C 173.228 183.061,184.830 175.468,191.543 171.075 C 203.165 163.470,205.594 161.250,202.292 161.250 C 201.490 161.250,200.641 161.057,200.405 160.822 C 199.872 160.289,195.843 158.806,193.750 158.373 C 192.891 158.196,191.920 157.786,191.594 157.463 C 191.267 157.139,190.490 156.875,189.867 156.875 C 189.243 156.875,188.245 156.606,187.648 156.277 C 187.051 155.948,184.313 154.951,181.563 154.062 C 178.813 153.172,176.000 152.201,175.313 151.905 C 174.348 151.489,165.991 148.600,159.688 146.503 C 159.344 146.389,158.203 146.671,157.152 147.130 M309.674 168.808 C 304.721 175.365,304.386 176.566,307.317 177.237 C 308.277 177.457,310.284 178.034,311.777 178.518 L 314.492 179.400 320.215 175.512 C 323.362 173.374,327.133 170.817,328.594 169.830 C 332.600 167.125,332.456 166.995,322.215 164.089 C 314.499 161.899,315.049 161.692,309.674 168.808 M330.000 181.830 C 324.040 185.331,312.372 191.973,295.625 201.398 C 272.100 214.638,271.746 214.854,255.313 225.948 C 247.063 231.517,236.375 238.732,231.563 241.981 L 222.813 247.887 222.641 258.020 C 222.434 270.187,222.320 270.056,229.113 265.441 C 252.580 249.498,258.868 245.218,270.000 237.608 C 274.297 234.670,282.453 229.139,288.125 225.317 C 293.797 221.494,300.688 216.815,303.438 214.918 C 309.761 210.556,322.517 201.854,332.052 195.396 L 339.416 190.409 339.239 184.118 C 339.020 176.320,339.274 176.383,330.000 181.830 M36.657 189.566 C 36.278 192.796,35.940 197.251,34.065 223.750 C 33.566 230.797,32.980 237.451,32.762 238.536 C 32.233 241.177,31.024 240.572,50.625 247.472 C 54.578 248.864,58.375 250.261,59.063 250.576 C 60.207 251.101,67.008 253.571,71.563 255.115 C 72.594 255.465,74.000 255.998,74.688 256.301 C 75.375 256.603,78.047 257.574,80.625 258.460 C 83.203 259.346,85.875 260.301,86.563 260.582 C 90.743 262.295,91.837 262.707,94.375 263.528 C 95.922 264.029,97.750 264.682,98.438 264.981 C 99.125 265.280,101.797 266.273,104.375 267.188 C 106.953 268.102,109.625 269.093,110.313 269.389 C 111.000 269.686,114.516 270.950,118.125 272.198 C 121.734 273.446,125.531 274.835,126.563 275.285 C 127.594 275.735,129.563 276.454,130.938 276.883 C 132.313 277.313,133.700 277.816,134.021 278.002 C 134.342 278.188,137.224 279.276,140.427 280.420 C 143.630 281.564,148.992 283.502,152.344 284.726 C 155.695 285.950,159.141 287.184,160.000 287.469 C 164.682 289.017,181.096 295.099,182.023 295.629 C 182.620 295.971,183.618 296.250,184.242 296.250 C 184.865 296.250,185.642 296.487,185.969 296.776 C 186.295 297.066,188.813 298.069,191.563 299.005 C 194.313 299.941,197.406 301.084,198.438 301.544 C 206.154 304.991,206.421 304.814,206.672 296.088 C 206.783 292.224,207.155 283.297,207.498 276.250 C 208.681 251.964,208.845 238.979,207.978 238.289 C 207.296 237.746,200.066 235.389,194.063 233.753 C 193.031 233.471,189.797 232.486,186.875 231.563 C 183.953 230.639,180.719 229.657,179.688 229.380 C 178.656 229.102,176.969 228.585,175.938 228.229 C 174.906 227.874,171.109 226.702,167.500 225.626 C 163.891 224.550,160.234 223.430,159.375 223.138 C 158.516 222.846,154.438 221.584,150.313 220.334 C 146.188 219.084,139.719 217.108,135.938 215.944 C 123.313 212.055,120.368 211.159,111.250 208.430 C 106.266 206.939,99.797 204.973,96.875 204.062 C 93.953 203.151,90.156 201.991,88.438 201.483 C 81.112 199.319,74.580 197.348,73.125 196.862 C 70.796 196.085,57.980 192.160,51.563 190.259 C 48.469 189.343,44.450 188.066,42.633 187.421 C 37.473 185.593,37.109 185.723,36.657 189.566 M333.125 201.219 C 323.589 207.735,322.996 208.348,325.469 209.139 C 326.070 209.331,327.125 209.744,327.813 210.057 C 332.006 211.965,340.039 214.816,340.249 214.472 C 340.795 213.575,341.378 196.252,340.861 196.279 C 340.559 196.295,337.078 198.518,333.125 201.219 " stroke="none" fill="#000000" fill-rule="evenodd"></path></g></svg>